<svg xmlns="http://www.w3.org/2000/svg" width="680pt" height="128pt" viewBox="0 0 680 128"><g fill="#0308c2"><path d="M8.57 36.19c.71-8.78 8.7-16.15 17.48-16.25 18.99-.11 37.98 0 56.98-.06 10.15-.92 19.86 7.81 19.75 18.05.06 19.37.06 38.73 0 58.1.04 9.89-8.77 18.87-18.76 18.5-6.49.04-12.98-.02-19.48 0 7.32-19.37 14.63-38.74 21.98-58.09 1.32-3.4 2.09-7.22.8-10.74-2.07-7.23-10.21-12.14-17.55-10.05-20.44 5.62-40.86 11.36-61.3 16.99.08-5.48-.17-10.97.1-16.45"/><path d="M72.25 48.23c1.81-.85 3.62.83 2.67 2.66-7.48 19.95-15.14 39.84-22.63 59.8-2.64-2.42-5.11-5.2-6.24-8.66-1.28-3.17-.84-6.65-1.45-9.95-1.16-5.74-5.31-10.78-10.72-13.02-4.7-2.2-10.28-.64-14.88-3.21-4.41-1.97-7.48-5.92-9.47-10.21 20.89-5.84 41.8-11.68 62.72-17.41"/></g><path d="M126.52 32.79c8.81-7.68 21.15-9.95 32.5-8.64 12.28 1.45 24.62 8.93 29.09 20.86-.07.42-.19 1.27-.25 1.7-3.01 2.25-6.55 3.75-10.04 5.1-.36-.07-1.09-.22-1.46-.29-2.46-2.49-4.18-5.66-6.94-7.87-7.29-6.44-18.38-6.99-27.07-3.27-7.32 3.17-12 10.5-13.7 18.08-1.65 7.67-1.77 16.03 1.55 23.29 3.02 6.73 9.36 12.14 16.77 13.17 7.38.96 15.42-.86 20.91-6.08 3.07-3 5.54-6.75 6.66-10.91.3-1.38-1.22-2.81-2.52-2.84-5.78-.19-11.58-.05-17.36.02-2.01-3.34-1.24-7.38-1.22-11.07-.06-1.41 1.04-3.03 2.56-2.96 10.42-.25 20.85.12 31.27-.16 2.24 2.11 1.5 5.31 1.61 8.07-.08 12.68.01 25.36-.03 38.04.07 1.29-.37 3.17-2.01 3.19-3.57.34-7.21.36-10.77-.09-2.11-1.37-.95-5.44-4.08-5.79-6.14 3.54-12.81 6.47-20.02 6.66-11.51.64-23.33-4.28-30.47-13.44-7.69-9.66-10.17-22.59-8.97-34.67.95-11.21 5.23-22.68 13.99-30.1M540.69 35.66c10.88-11.94 29.3-14.48 44.13-9.46 8.92 3.1 17.07 9.73 20.4 18.75l-.24 1.85c-3.09 2.19-6.62 3.76-10.17 5.03-2.67-.39-3.57-3.58-5.36-5.25-9.94-12.7-32.7-10.91-40.35 3.37-4.11 7.27-5.01 15.99-3.99 24.18 1.09 8.06 6 15.83 13.59 19.18 5.61 2.61 12.23 2.27 18.03.44 7.3-2.34 12.93-8.7 15.05-15.98-.24-1.1-1.09-1.91-1.65-2.83-6.12.21-12.23-.02-18.35.15-1.86-3.38-1.14-7.37-1.12-11.06-.25-1.84 1.46-3.24 3.22-2.99 9.38-.09 18.77.01 28.15-.04 1.81-.24 4.25.72 3.92 2.93.11 14.38.03 28.76.04 43.14.21 1.41-.51 3.04-2.1 3.16-3.59.3-7.26.41-10.82-.16-1.63-1.78-1.33-4.87-3.85-6.04-13.34 9.66-33.14 9.39-45.71-1.47-8.9-7.51-13.47-19.15-13.99-30.6-.65-12.82 2.26-26.61 11.17-36.3M240.16 26.23c19.94-.36 39.91-.03 59.86-.16 2.9-.54 5.58 1.89 5.1 4.85-.17 3.15 1.19 8.43-3.09 9.32-6.61.51-13.28-.2-19.9.27-2.17.13-3.36 2.43-3.2 4.4-.11 20.04.03 40.09-.06 60.14.22 2.11-1.67 4.12-3.8 4.02-3.02.18-6.08.28-9.07-.2-2.16-.47-2.83-2.9-2.68-4.83.01-17.35 0-34.7.01-52.05-.03-2.96.21-5.94-.25-8.87-.22-1.51-1.73-2.55-3.18-2.64-6.56-.41-13.16.25-19.72-.24-3.42-.58-3.24-4.59-3.17-7.22-.11-2.52-.01-6.24 3.15-6.79M444.19 29.95c-.11-1.69 1-3.54 2.83-3.62 3.18-.24 6.43-.38 9.59.15 1.96.56 2.13 2.82 2.08 4.51-.04 24.68 0 49.36-.02 74.03.16 1.74-.76 3.91-2.75 3.98-3.26.27-6.58.39-9.81-.17-1.85-1.08-2.15-3.51-3.13-5.25-3.2 2.39-6.41 5.02-10.4 5.94-9.96 2.32-21.34-.04-28.71-7.39-5.82-5.76-8.46-14.11-8.36-22.18-.17-8.78 2.61-18.13 9.5-23.96 9.59-8.03 24.62-9.17 35.01-1.95 1.26 1.13 2.75.86 4.13.11.04-8.07-.09-16.13.04-24.2m-22.86 33.54c-9.68 2.55-13.83 14.48-10.13 23.24 2.89 8.15 12.83 12.29 20.82 9.36 8.6-2.58 13.08-12.62 10.68-21-2.14-9.08-12.62-14.5-21.37-11.6"/><path d="M321.48 49.62c1.83-.15 4.29-1.43 5.6.45.34 4.34.05 8.69.05 13.03-3.39.74-6.99 1.16-9.96 3.1-3.71 2.25-6.13 6.41-6.25 10.75-.29 10.31.19 20.65-.2 30.96-.2.26-.59.78-.79 1.04-4.36.46-8.74.1-13.11.14-.28-1.7-.48-3.41-.48-5.14.05-13.32.01-26.65.03-39.97.04-4.42-.28-8.86.39-13.25 4.36.04 8.75-.32 13.1.14 1 1.04 1.22 3.21 2.96 3.28 2.71-1.81 5.32-4.03 8.66-4.53M333.79 58.77c7.05-8.1 18.87-11.02 29.16-8.85 4.66.84 8.31 3.94 12.04 6.62.67-2.54 1.56-6.21 4.97-5.84 3.24.14 8.06-1.2 9.72 2.54.73 4.88.2 9.84.28 14.75.15 12.01.08 24.02.04 36.03.17 2.07-.87 4.37-3.01 4.92-2.95.38-6 .45-8.91-.18-2.25-.98-1.96-3.97-3.67-5.46-10.23 10.41-28.36 9.78-38.79.05-6.11-5.69-8.73-14.23-8.79-22.4-.29-7.87 1.7-16.13 6.96-22.18m19.72 4.03c-12.12 2.72-15.87 19.12-8.75 28.34 6.04 8.16 19.79 8.71 26.37.94 6.13-7.23 5.7-19.38-1.4-25.83-4.31-3.94-10.7-4.89-16.22-3.45M487.42 49.63c9.98-1.86 21.56-.56 29.12 6.83 6.73 6.57 8.65 16.51 8.17 25.58.07 1.43-.93 3.19-2.58 2.95-13.4.21-26.82-.2-40.2.16-2.64.17-2.51 3.47-1.12 5.02 5.06 7.87 16.05 8.56 24.18 5.81 2.7-.67 4.96-3.23 7.84-2.86 2.59 2.07 5.07 4.39 7.03 7.09.95 1.46-.73 2.91-1.81 3.72-9.45 6.73-22.08 8.25-33.15 5.22-8.27-2.25-15.43-8.42-18.45-16.5-4.31-11.4-2.94-25.56 5.6-34.68 4.05-4.37 9.58-7.15 15.37-8.34m-7.25 21.25 1.8 2.12c8.37-.04 16.74.06 25.11-.02 1.46.31 2.45-.8 3.01-2.02-1.05-5.54-6.82-8.84-12.12-9.1-6.98-.93-15.17 1.99-17.8 9.02M215.38 50.55c10.33-2.67 22.25-.53 30.05 7.05 11.65 11.11 12.13 31.5 1.45 43.41-10.11 11.16-28.73 12.34-40.91 3.97-14.64-10.39-16.04-33.98-3.77-46.72 3.56-3.73 8.2-6.4 13.18-7.71m3.94 12.79c-11.15 3.49-14.06 18.93-7.54 27.76 5.26 7.49 17.52 8.09 23.65 1.37 6.61-7.24 5.98-19.96-1.62-26.28-3.88-3.48-9.59-4.28-14.49-2.85M632.44 50.58c10.3-2.68 22.22-.63 30.02 6.92 11.61 10.94 12.27 31.02 1.98 43.04-11.81 13.7-36.53 13.21-47.35-1.46-8.04-10.95-8.08-27.12-.05-38.08 3.72-5.13 9.3-8.78 15.4-10.42m3.88 12.79c-12.48 4.06-14.43 23.09-4.41 30.77 6.03 4.45 15.45 3.97 20.62-1.61 6.79-7.45 5.98-20.75-2.21-26.88-3.89-3.11-9.32-3.64-14-2.28"/></svg>