<svg xmlns="http://www.w3.org/2000/svg" width="95.061" height="96.006"><rect width="100%" height="100%" fill="none"/><g class="currentLayer"><g fill="#0308c2"><path d="M.749 17.196c.71-8.78 8.7-16.15 17.48-16.25 18.99-.11 37.98 0 56.98-.06 10.15-.92 19.86 7.81 19.75 18.05.06 19.37.06 38.73 0 58.1.04 9.89-8.77 18.87-18.76 18.5-6.49.04-12.98-.02-19.48 0 7.32-19.37 14.63-38.74 21.98-58.09 1.32-3.4 2.09-7.22.8-10.74-2.07-7.23-10.21-12.14-17.55-10.05-20.44 5.62-40.86 11.36-61.3 16.99.08-5.48-.17-10.97.1-16.45"/><path d="M64.429 29.236c1.81-.85 3.62.83 2.67 2.66-7.48 19.95-15.14 39.84-22.63 59.8-2.64-2.42-5.11-5.2-6.24-8.66-1.28-3.17-.84-6.65-1.45-9.95-1.16-5.74-5.31-10.78-10.72-13.02-4.7-2.2-10.28-.64-14.88-3.21-4.41-1.97-7.48-5.92-9.47-10.21 20.89-5.84 41.8-11.68 62.72-17.41"/></g></g></svg>