<svg width="117" height="25" viewBox="0 0 117 25" fill="none" xmlns="http://www.w3.org/2000/svg">
<path d="M72.964 2.21175V5.76282H70.7381V8.09161H72.964V16.0043C72.964 18.7062 74.1863 19.787 77.2613 19.787C77.8017 19.787 78.3163 19.7227 78.7666 19.6455V17.3424C78.3807 17.381 78.1362 17.4067 77.7116 17.4067C76.3349 17.4067 75.7302 16.7634 75.7302 15.2967V8.09161H78.7666V5.76282H75.7302V2.21175H72.964Z" fill="white"/>
<path d="M86.6001 19.98C90.6916 19.98 93.2005 17.2395 93.2005 12.6977C93.2005 8.18167 90.6787 5.4283 86.6001 5.4283C82.5086 5.4283 79.9869 8.18167 79.9869 12.6977C79.9869 17.2395 82.4958 19.98 86.6001 19.98ZM86.6001 17.5225C84.1941 17.5225 82.8432 15.7599 82.8432 12.6977C82.8432 9.66128 84.1941 7.88575 86.6001 7.88575C88.9932 7.88575 90.357 9.66128 90.357 12.6977C90.357 15.747 88.9932 17.5225 86.6001 17.5225Z" fill="white"/>
<path d="M95.3471 19.7098H98.1133V11.4368C98.1133 9.46829 99.5929 8.14307 101.69 8.14307C102.179 8.14307 103.002 8.23313 103.234 8.31033V5.58269C102.938 5.5055 102.411 5.4669 101.999 5.4669C100.172 5.4669 98.6151 6.47046 98.2162 7.84715H98.0104V5.69849H95.3471V19.7098Z" fill="white"/>
<path d="M110.103 7.78282C112.148 7.78282 113.486 9.21097 113.551 11.4111H106.474C106.629 9.22383 108.057 7.78282 110.103 7.78282ZM113.538 15.9271C113.023 17.0208 111.878 17.6255 110.205 17.6255C107.992 17.6255 106.564 16.0687 106.474 13.6112V13.4568H116.368V12.4918C116.368 8.09161 114.014 5.4283 110.115 5.4283C106.165 5.4283 103.657 8.27173 103.657 12.7492C103.657 17.2266 106.114 19.98 110.128 19.98C113.332 19.98 115.571 18.436 116.201 15.9271H113.538Z" fill="white"/>
<path d="M54.8234 14.5356C55.0368 17.9762 57.9039 20.1765 62.1713 20.1765C66.732 20.1765 69.5858 17.8695 69.5858 14.1889C69.5858 11.2951 67.9588 9.69487 64.0115 8.77473L61.8912 8.25464C59.3841 7.66788 58.3707 6.88109 58.3707 5.50754C58.3707 3.77393 59.9442 2.64042 62.3046 2.64042C64.545 2.64042 66.0919 3.74726 66.3719 5.52088H69.2791C69.1057 2.28036 66.2519 0 62.3446 0C58.144 0 55.3435 2.28036 55.3435 5.70757C55.3435 8.53469 56.9304 10.215 60.411 11.0284L62.8914 11.6285C65.4384 12.2286 66.5586 13.1087 66.5586 14.5756C66.5586 16.2826 64.7983 17.5228 62.398 17.5228C59.8242 17.5228 58.0373 16.3626 57.7839 14.5356H54.8234Z" fill="white"/>
<path d="M26.1681 5.4669C24.2639 5.4669 22.617 6.419 21.7678 8.01441H21.562V5.69849H18.8986V24.3674H21.6649V17.5869H21.8836C22.617 19.0665 24.1995 19.9414 26.1938 19.9414C29.732 19.9414 31.9836 17.1494 31.9836 12.6977C31.9836 8.246 29.732 5.4669 26.1681 5.4669ZM25.3832 17.4582C23.0673 17.4582 21.6134 15.6312 21.6134 12.7106C21.6134 9.77708 23.0673 7.95008 25.3961 7.95008C27.7377 7.95008 29.1402 9.73848 29.1402 12.6977C29.1402 15.6698 27.7377 17.4582 25.3832 17.4582Z" fill="white"/>
<path d="M41.6631 5.4669C39.7589 5.4669 38.112 6.419 37.2628 8.01441H37.057V5.69849H34.3937V24.3674H37.1599V17.5869H37.3786C38.112 19.0665 39.6946 19.9414 41.6888 19.9414C45.227 19.9414 47.4786 17.1494 47.4786 12.6977C47.4786 8.246 45.227 5.4669 41.6631 5.4669ZM40.8783 17.4582C38.5623 17.4582 37.1085 15.6312 37.1085 12.7106C37.1085 9.77708 38.5623 7.95008 40.8911 7.95008C43.2328 7.95008 44.6352 9.73848 44.6352 12.6977C44.6352 15.6698 43.2328 17.4582 40.8783 17.4582Z" fill="white"/>
<path d="M13.9355 19.7098H17.1094L10.1616 0.466741H6.94777L0 19.7098H3.06715L4.84077 14.6023H12.1753L13.9355 19.7098ZM8.40133 3.96063H8.62804L11.4151 12.0953H5.60089L8.40133 3.96063Z" fill="white"/>
</svg>
