<svg width="28" height="34" viewBox="0 0 28 34" fill="none" xmlns="http://www.w3.org/2000/svg">
<path d="M22.9358 17.9496C22.9694 15.344 24.3687 12.8786 26.5885 11.5139C25.1881 9.51387 22.8425 8.24581 20.4022 8.16946C17.7994 7.89626 15.2761 9.72695 13.9497 9.72695C12.5977 9.72695 10.5556 8.19658 8.35653 8.24183C5.49019 8.33443 2.81804 9.96408 1.42351 12.47C-1.57419 17.6601 0.661822 25.2877 3.53337 29.4829C4.97006 31.5372 6.64915 33.8319 8.84619 33.7506C10.9961 33.6614 11.7991 32.3796 14.3943 32.3796C16.9653 32.3796 17.7187 33.7506 19.9603 33.6988C22.2673 33.6614 23.7208 31.6354 25.1071 29.5617C26.1394 28.0979 26.9337 26.4801 27.4607 24.7683C24.7495 23.6216 22.939 20.8932 22.9358 17.9496Z" fill="white"/>
<path d="M18.7018 5.41046C19.9596 3.90044 20.5793 1.95956 20.4293 0C18.5075 0.201842 16.7324 1.12031 15.4575 2.5724C14.2109 3.99116 13.5621 5.89789 13.6848 7.78255C15.6072 7.80234 17.4971 6.90877 18.7018 5.41046Z" fill="white"/>
</svg>
