<svg width="80" height="80" viewBox="0 0 80 80" fill="none" xmlns="http://www.w3.org/2000/svg">
<rect x="0.5" y="0.5" width="79" height="79" rx="39.5" fill="white"/>
<rect x="0.5" y="0.5" width="79" height="79" rx="39.5" stroke="#DCDCDC"/>
<path fill-rule="evenodd" clip-rule="evenodd" d="M39.523 37.1003L44.588 32.0353C45.0372 31.5942 45.6424 31.3484 46.2719 31.3513C46.9015 31.3542 47.5044 31.6056 47.9496 32.0507C48.3947 32.4959 48.6461 33.0988 48.649 33.7283C48.6518 34.3579 48.406 34.9631 47.965 35.4123L42.899 40.4783L47.965 45.5433C48.406 45.9925 48.6518 46.5977 48.649 47.2273C48.6461 47.8568 48.3947 48.4597 47.9496 48.9049C47.5044 49.35 46.9015 49.6014 46.2719 49.6043C45.6424 49.6072 45.0372 49.3613 44.588 48.9203L39.522 43.8553L34.457 48.9203C34.236 49.1454 33.9726 49.3245 33.682 49.4472C33.3914 49.5699 33.0794 49.6338 32.7639 49.6353C32.4485 49.6367 32.1359 49.5756 31.8442 49.4556C31.5525 49.3355 31.2875 49.1589 31.0644 48.9359C30.8414 48.7128 30.6647 48.4478 30.5447 48.1561C30.4246 47.8644 30.3636 47.5518 30.365 47.2363C30.3665 46.9209 30.4304 46.6089 30.5531 46.3183C30.6758 46.0277 30.8549 45.7643 31.08 45.5433L36.145 40.4773L31.08 35.4123C30.8549 35.1913 30.6758 34.9279 30.5531 34.6373C30.4304 34.3467 30.3665 34.0347 30.365 33.7193C30.3636 33.4038 30.4246 33.0912 30.5447 32.7995C30.6647 32.5078 30.8414 32.2428 31.0644 32.0197C31.2875 31.7967 31.5525 31.62 31.8442 31.5C32.1359 31.38 32.4485 31.3189 32.7639 31.3203C33.0794 31.3218 33.3914 31.3857 33.682 31.5084C33.9726 31.6311 34.236 31.8102 34.457 32.0353L39.523 37.1003Z" fill="#767676"/>
</svg>
