<svg width="80" height="80" viewBox="0 0 80 80" fill="none" xmlns="http://www.w3.org/2000/svg">
<rect x="0.5" y="0.5" width="79" height="79" rx="39.5" fill="white"/>
<rect x="0.5" y="0.5" width="79" height="79" rx="39.5" stroke="#DCDCDC"/>
<path fill-rule="evenodd" clip-rule="evenodd" d="M42.9577 22.2079L46.8917 30.1249C47.1296 30.6024 47.4798 31.015 47.9123 31.3273C48.3448 31.6396 48.8467 31.8422 49.3747 31.9179L58.1717 33.1879C60.8777 33.5779 61.9577 36.8819 59.9997 38.7779L53.6347 44.9399C53.2524 45.3094 52.9661 45.7668 52.8009 46.2722C52.6357 46.7777 52.5965 47.3158 52.6867 47.8399L54.1887 56.5429C54.6507 59.2199 51.8217 61.2609 49.4017 59.9979L41.5347 55.8879C41.0608 55.6407 40.5342 55.5117 39.9997 55.5117C39.4653 55.5117 38.9387 55.6407 38.4647 55.8879L30.5977 59.9979C28.1777 61.2609 25.3477 59.2199 25.8107 56.5429L27.3127 47.8399C27.4032 47.3158 27.364 46.7776 27.1988 46.2722C27.0336 45.7667 26.7472 45.3093 26.3647 44.9399L19.9997 38.7769C18.0417 36.8819 19.1227 33.5769 21.8277 33.1869L30.6237 31.9169C31.1519 31.8416 31.6539 31.6392 32.0866 31.327C32.5193 31.0149 32.8697 30.6023 33.1077 30.1249L37.0417 22.2079C38.2517 19.7719 41.7477 19.7719 42.9577 22.2079Z" fill="#FFA500"/>
</svg>
