<svg width="96" height="96" viewBox="0 0 96 96" fill="none" xmlns="http://www.w3.org/2000/svg">
<path fill-rule="evenodd" clip-rule="evenodd" d="M2 32.7172C2 27.4132 5.764 21.0432 10.41 18.4872L39.59 2.44322C44.235 -0.110781 51.764 -0.111781 56.41 2.44322L85.59 18.4892C90.235 21.0432 94 27.4032 94 32.7192V62.5682C94 67.8722 90.255 74.2942 85.643 76.9082L56.357 93.4982C51.742 96.1132 44.255 96.1112 39.643 93.4982L10.357 76.9062C5.742 74.2912 2 67.8822 2 62.5662V32.7172Z" fill="#1B3D91"/>
<path d="M51.6797 65.5324L59.6253 43.7781C60.6989 39.8795 57.5056 36.2194 53.6354 37.0178L32.0767 43.1671L32.0264 43.0632C32.1224 41.136 31.8758 39.058 32.0913 37.1513C32.4407 34.0564 35.0535 31.5694 38.0469 31.4014C43.9517 31.4122 49.8695 31.3906 55.7659 31.4041C58.208 31.4095 60.2327 31.0929 62.3321 32.6406C63.9046 33.8002 64.8858 35.6316 65 37.639V59.1118C64.8453 62.5027 62.1836 65.3585 58.8907 65.5346L51.6797 65.5324Z" fill="white"/>
<path d="M47.3986 64.0542C47.3498 64.0978 47.0943 63.8685 47.0419 63.8239C45.9621 62.9039 45.132 61.3637 44.9103 59.9333C44.8101 59.2868 44.8506 58.6457 44.7789 58.0056C44.456 55.1245 42.2071 52.7214 39.4421 52.2918C38.9276 52.2121 38.4168 52.2433 37.9002 52.1949C35.4551 51.9666 33.3011 50.2752 32.4741 47.8829L54.4444 41.5829C55.0103 41.3729 55.5481 41.9209 55.3078 42.5082L47.3986 64.0542Z" fill="white"/>
</svg>
