<svg width="108" height="10" viewBox="0 0 108 10" fill="none" xmlns="http://www.w3.org/2000/svg">
<path d="M0 0.45675V9.73972H3.35165C6.11788 9.73972 7.71973 8.03495 7.71973 5.06929C7.71973 2.14866 6.10502 0.45675 3.35165 0.45675H0ZM1.44102 1.7691H3.19082C5.11432 1.7691 6.25298 2.99139 6.25298 5.08859C6.25298 7.21794 5.13362 8.42737 3.19082 8.42737H1.44102V1.7691Z" fill="white"/>
<path d="M12.6256 9.87482C14.6713 9.87482 15.9258 8.50457 15.9258 6.23368C15.9258 3.97566 14.6649 2.59897 12.6256 2.59897C10.5799 2.59897 9.319 3.97566 9.319 6.23368C9.319 8.50457 10.5735 9.87482 12.6256 9.87482ZM12.6256 8.64609C11.4226 8.64609 10.7471 7.76476 10.7471 6.23368C10.7471 4.71547 11.4226 3.8277 12.6256 3.8277C13.8222 3.8277 14.5041 4.71547 14.5041 6.23368C14.5041 7.75832 13.8222 8.64609 12.6256 8.64609Z" fill="white"/>
<path d="M26.6086 2.73407H25.2255L23.9775 8.07998H23.8681L22.4271 2.73407H21.1019L19.6609 8.07998H19.5579L18.3035 2.73407H16.9011L18.831 9.73972H20.2527L21.6937 4.58037H21.8031L23.2505 9.73972H24.6851L26.6086 2.73407Z" fill="white"/>
<path d="M28.2014 9.73972H29.5846V5.64183C29.5846 4.54821 30.2343 3.8663 31.2572 3.8663C32.28 3.8663 32.7689 4.42598 32.7689 5.55177V9.73972H34.1521V5.20438C34.1521 3.53821 33.29 2.59897 31.7268 2.59897C30.6718 2.59897 29.977 3.06859 29.636 3.847H29.5331V2.73407H28.2014V9.73972Z" fill="white"/>
<path d="M36.3303 9.73972H37.7134V0H36.3303V9.73972Z" fill="white"/>
<path d="M42.9152 9.87482C44.961 9.87482 46.2154 8.50457 46.2154 6.23368C46.2154 3.97566 44.9545 2.59897 42.9152 2.59897C40.8695 2.59897 39.6086 3.97566 39.6086 6.23368C39.6086 8.50457 40.8631 9.87482 42.9152 9.87482ZM42.9152 8.64609C41.7123 8.64609 41.0368 7.76476 41.0368 6.23368C41.0368 4.71547 41.7123 3.8277 42.9152 3.8277C44.1118 3.8277 44.7937 4.71547 44.7937 6.23368C44.7937 7.75832 44.1118 8.64609 42.9152 8.64609Z" fill="white"/>
<path d="M50.3365 8.69113C49.5838 8.69113 49.037 8.32444 49.037 7.69399C49.037 7.07642 49.4744 6.74833 50.4394 6.684L52.1506 6.57463V7.16005C52.1506 8.02852 51.3786 8.69113 50.3365 8.69113ZM49.9826 9.85552C50.9026 9.85552 51.6681 9.45666 52.0863 8.75546H52.1956V9.73972H53.5273V4.95349C53.5273 3.47388 52.5366 2.59897 50.7804 2.59897C49.1914 2.59897 48.0592 3.37095 47.9176 4.57394H49.2557C49.4101 4.07859 49.9441 3.79553 50.716 3.79553C51.6617 3.79553 52.1506 4.21368 52.1506 4.95349V5.5582L50.2528 5.66757C48.5867 5.7705 47.6474 6.49744 47.6474 7.75832C47.6474 9.03851 48.6317 9.85552 49.9826 9.85552Z" fill="white"/>
<path d="M58.2209 9.85552C59.1859 9.85552 60.0029 9.39877 60.421 8.63323H60.5304V9.73972H61.8556V0H60.4725V3.847H60.3695C59.99 3.07502 59.1794 2.61827 58.2209 2.61827C56.4518 2.61827 55.3131 4.02069 55.3131 6.23368C55.3131 8.4531 56.4389 9.85552 58.2209 9.85552ZM58.6133 3.85986C59.7713 3.85986 60.4982 4.7798 60.4982 6.24011C60.4982 7.70686 59.7777 8.61393 58.6133 8.61393C57.4425 8.61393 56.7413 7.71973 56.7413 6.23368C56.7413 4.7605 57.4489 3.85986 58.6133 3.85986Z" fill="white"/>
<path d="M70.8246 9.87482C72.8704 9.87482 74.1248 8.50457 74.1248 6.23368C74.1248 3.97566 72.8639 2.59897 70.8246 2.59897C68.7789 2.59897 67.518 3.97566 67.518 6.23368C67.518 8.50457 68.7725 9.87482 70.8246 9.87482ZM70.8246 8.64609C69.6216 8.64609 68.9462 7.76476 68.9462 6.23368C68.9462 4.71547 69.6216 3.8277 70.8246 3.8277C72.0212 3.8277 72.7031 4.71547 72.7031 6.23368C72.7031 7.75832 72.0212 8.64609 70.8246 8.64609Z" fill="white"/>
<path d="M75.9557 9.73972H77.3388V5.64183C77.3388 4.54821 77.9885 3.8663 79.0114 3.8663C80.0343 3.8663 80.5232 4.42598 80.5232 5.55177V9.73972H81.9063V5.20438C81.9063 3.53821 81.0443 2.59897 79.481 2.59897C78.426 2.59897 77.7312 3.06859 77.3903 3.847H77.2873V2.73407H75.9557V9.73972Z" fill="white"/>
<path d="M88.2764 0.990698V2.76624H87.1634V3.93063H88.2764V7.88699C88.2764 9.23794 88.8875 9.77832 90.425 9.77832C90.6952 9.77832 90.9525 9.74615 91.1777 9.70756V8.55603C90.9847 8.57533 90.8625 8.5882 90.6502 8.5882C89.9618 8.5882 89.6595 8.26654 89.6595 7.53317V3.93063H91.1777V2.76624H89.6595V0.990698H88.2764Z" fill="white"/>
<path d="M93.0343 9.73972H94.4174V5.64827C94.4174 4.5868 95.0478 3.87273 96.1801 3.87273C97.1579 3.87273 97.679 4.43884 97.679 5.5582V9.73972H99.0621V5.21725C99.0621 3.55107 98.1422 2.60541 96.6497 2.60541C95.5947 2.60541 94.8548 3.07502 94.5139 3.85986H94.4045V0H93.0343V9.73972Z" fill="white"/>
<path d="M104.052 3.77623C105.074 3.77623 105.744 4.49031 105.776 5.59037H102.237C102.315 4.49674 103.029 3.77623 104.052 3.77623ZM105.769 7.84839C105.512 8.3952 104.939 8.69756 104.103 8.69756C102.997 8.69756 102.283 7.91915 102.237 6.69043V6.61323H107.185V6.13075C107.185 3.93063 106.007 2.59897 104.058 2.59897C102.083 2.59897 100.829 4.02069 100.829 6.25941C100.829 8.49813 102.057 9.87482 104.064 9.87482C105.666 9.87482 106.786 9.10284 107.101 7.84839H105.769Z" fill="white"/>
</svg>
