<svg width="132" height="27" viewBox="0 0 132 27" fill="none" xmlns="http://www.w3.org/2000/svg">
<path d="M102.015 20.0765H104.903V0.698988H102.015V20.0765ZM128.034 7.67957L124.723 16.0804H124.624L121.187 7.67957H118.075L123.23 19.4208L120.291 25.9525H123.303L131.247 7.67957H128.034ZM111.65 17.8756C110.706 17.8756 109.385 17.4015 109.385 16.23C109.385 14.7344 111.029 14.161 112.448 14.161C113.717 14.161 114.316 14.4348 115.087 14.8089C114.863 16.6042 113.319 17.8756 111.65 17.8756V17.8756ZM112 7.25564C109.909 7.25564 107.743 8.17836 106.846 10.2225L109.41 11.2942C109.958 10.2225 110.978 9.87375 112.05 9.87375C113.544 9.87375 115.062 10.7704 115.087 12.3665V12.5656C114.564 12.2665 113.443 11.8179 112.074 11.8179C109.309 11.8179 106.497 13.3382 106.497 16.1802C106.497 18.7729 108.763 20.4434 111.302 20.4434C113.243 20.4434 114.316 19.5709 114.987 18.5483H115.087V20.045H117.877V12.6152C117.877 9.17501 115.31 7.25564 112 7.25564V7.25564ZM94.1469 10.0384H90.0381V3.39645H94.1469C96.3066 3.39645 97.5327 5.18624 97.5327 6.71733C97.5327 8.21897 96.3066 10.0384 94.1469 10.0384V10.0384ZM94.0726 0.698988H87.1505V20.0765H90.0381V12.7352H94.0726C97.2742 12.7352 100.422 10.415 100.422 6.71733C100.422 3.02042 97.2742 0.698988 94.0726 0.698988ZM56.3266 17.8792C54.3309 17.8792 52.6606 16.2057 52.6606 13.9092C52.6606 11.586 54.3309 9.88878 56.3266 9.88878C58.2969 9.88878 59.8432 11.586 59.8432 13.9092C59.8432 16.2057 58.2969 17.8792 56.3266 17.8792V17.8792ZM59.6436 8.76457H59.5438C58.8956 7.99065 57.6479 7.29145 56.0775 7.29145C52.7846 7.29145 49.7669 10.1886 49.7669 13.9092C49.7669 17.6044 52.7846 20.4761 56.0775 20.4761C57.6479 20.4761 58.8956 19.7767 59.5438 18.9781H59.6436V19.9263C59.6436 22.4493 58.2969 23.7971 56.127 23.7971C54.3569 23.7971 53.2594 22.5238 52.81 21.4503L50.2913 22.4989C51.014 24.2463 52.934 26.3945 56.127 26.3945C59.5196 26.3945 62.3879 24.3965 62.3879 19.5267V7.69104H59.6436V8.76457ZM64.3836 20.0765H67.2756V0.698988H64.3836V20.0765ZM71.5409 13.684C71.4664 11.1367 73.5123 9.83856 74.983 9.83856C76.1308 9.83856 77.1026 10.4131 77.428 11.2367L71.5409 13.684ZM80.5195 11.4861C79.971 10.0136 78.3001 7.29145 74.8832 7.29145C71.4905 7.29145 68.6725 9.96334 68.6725 13.8838C68.6725 17.5796 71.4664 20.4761 75.2067 20.4761C78.2244 20.4761 79.971 18.6288 80.6948 17.5546L78.4499 16.0561C77.7014 17.155 76.6793 17.8792 75.2067 17.8792C73.736 17.8792 72.688 17.2048 72.0155 15.8812L80.8188 12.2356L80.5195 11.4861ZM10.3763 9.3142V12.1109H17.0604C16.8609 13.684 16.3371 14.8325 15.5389 15.6317C14.5659 16.6052 13.0444 17.6794 10.3763 17.6794C6.26086 17.6794 3.04366 14.3584 3.04366 10.2382C3.04366 6.11794 6.26086 2.79645 10.3763 2.79645C12.5962 2.79645 14.217 3.67065 15.4143 4.7944L17.3852 2.82125C15.7137 1.22335 13.4943 -0.00021434 10.3763 -0.00021434C4.73872 -0.00021434 0 4.5946 0 10.2382C0 15.8812 4.73872 20.4761 10.3763 20.4761C13.4187 20.4761 15.7137 19.4771 17.5093 17.6044C19.355 15.7565 19.9288 13.1596 19.9288 11.0617C19.9288 10.4131 19.8785 9.81376 19.7788 9.3142H10.3763ZM27.5281 17.8792C25.5324 17.8792 23.8113 16.2311 23.8113 13.8838C23.8113 11.5115 25.5324 9.88878 27.5281 9.88878C29.523 9.88878 31.2441 11.5115 31.2441 13.8838C31.2441 16.2311 29.523 17.8792 27.5281 17.8792V17.8792ZM27.5281 7.29145C23.8856 7.29145 20.9181 10.0632 20.9181 13.8838C20.9181 17.6794 23.8856 20.4761 27.5281 20.4761C31.1692 20.4761 34.1373 17.6794 34.1373 13.8838C34.1373 10.0632 31.1692 7.29145 27.5281 7.29145ZM41.9457 17.8792C39.9514 17.8792 38.2297 16.2311 38.2297 13.8838C38.2297 11.5115 39.9514 9.88878 41.9457 9.88878C43.9414 9.88878 45.6619 11.5115 45.6619 13.8838C45.6619 16.2311 43.9414 17.8792 41.9457 17.8792ZM41.9457 7.29145C38.3046 7.29145 35.3371 10.0632 35.3371 13.8838C35.3371 17.6794 38.3046 20.4761 41.9457 20.4761C45.5882 20.4761 48.5557 17.6794 48.5557 13.8838C48.5557 10.0632 45.5882 7.29145 41.9457 7.29145Z" fill="white"/>
</svg>
