<svg width="36" height="40" viewBox="0 0 36 40" fill="none" xmlns="http://www.w3.org/2000/svg">
<path d="M16.6347 19.0394L0.152344 36.5544C0.152963 36.558 0.154201 36.561 0.154821 36.5647C0.660291 38.4664 2.3953 39.8669 4.45449 39.8669C5.27764 39.8669 6.05048 39.6441 6.71324 39.2529L6.76588 39.2221L25.3189 28.5035L16.6347 19.0394" fill="#EA4335"/>
<path d="M33.3094 16.0569L33.2936 16.046L25.2838 11.3971L16.2598 19.4366L25.3152 28.5017L33.2827 23.8989C34.6796 23.1439 35.6279 21.6696 35.6279 19.9694C35.6279 18.2814 34.6923 16.8144 33.3094 16.0569" fill="#FBBC04"/>
<path d="M0.151162 3.31168C0.0520801 3.67748 0 4.06063 0 4.45852V35.4083C0 35.8054 0.0514605 36.1899 0.15178 36.5544L17.2014 19.4875L0.151162 3.31168Z" fill="#4285F4"/>
<path d="M16.7559 19.9333L25.2871 11.3944L6.75515 0.637047C6.08155 0.233117 5.2954 -9.16245e-07 4.45414 -9.16245e-07C2.39494 -9.16245e-07 0.657611 1.4029 0.151986 3.30708C0.151367 3.30894 0.151367 3.31018 0.151367 3.31188L16.7559 19.9333Z" fill="#34A853"/>
</svg>
