<svg width="139" height="21" viewBox="0 0 139 21" fill="none" xmlns="http://www.w3.org/2000/svg">
<path d="M0 10.0337C0 3.19976 4.28464 0 9.6 0C14.21 0 17.7897 2.41336 18.3322 6.88815H14.1559C13.6949 4.90853 11.9323 3.60696 9.6 3.60696C6.50859 3.60696 4.1763 5.58658 4.1763 10.0341C4.1763 14.4816 6.45442 16.5154 9.6 16.5154C12.0679 16.5154 14.0475 15.268 14.5354 13.1528L14.5627 12.963H9.30188V9.38332H18.5219V19.7425H15.051L14.7797 17.8984H14.5085C13.0172 19.4171 11.0103 20.122 9.05756 20.122C3.98615 20.1216 0 16.542 0 10.0337Z" fill="#0308C2"/>
<path d="M20.1484 12.7472C20.1484 7.75755 23.3755 5.37109 27.7957 5.37109C32.2701 5.37109 35.443 7.75755 35.443 12.7472C35.443 17.7368 32.2701 20.1232 27.7957 20.1232C23.3755 20.1232 20.1484 17.7368 20.1484 12.7472ZM31.5924 12.7472C31.5924 9.76408 30.0466 8.3538 27.7688 8.3538C25.4907 8.3538 23.9993 9.76408 23.9993 12.7472C23.9993 15.703 25.518 17.1405 27.823 17.1405C30.0738 17.1401 31.5924 15.703 31.5924 12.7472Z" fill="#0308C2"/>
<path d="M36.9118 19.7414V3.95859H30.7559V0.378906H47.027V3.95859H40.871V19.7414H36.9118Z" fill="#0308C2"/>
<path d="M53.1406 12.7472C53.1406 7.78446 56.151 5.37109 59.5405 5.37109C61.6826 5.37109 63.0929 6.13059 64.1505 7.59468H64.4218L64.693 5.75066H68.164V19.7436H64.693L64.4218 17.8724H64.1505C63.0929 19.3637 61.7099 20.1232 59.5405 20.1232C56.1506 20.1232 53.1406 17.6826 53.1406 12.7472ZM64.5032 12.7472C64.5032 10.0895 62.9573 8.46251 60.7337 8.46251C58.5643 8.46251 56.9915 9.89969 56.9915 12.7472C56.9915 15.5946 58.5643 17.0318 60.7337 17.0318C62.9573 17.0318 64.5032 15.4045 64.5032 12.7472Z" fill="#0308C2"/>
<path d="M70.1777 12.7449C70.1777 7.8095 73.1877 5.36887 76.5776 5.36887C78.7198 5.36887 80.13 6.1011 81.1877 7.59245H81.4589V0.378906H85.2011V19.7414H81.7301L81.4589 17.8701H81.1877C80.13 19.3346 78.747 20.121 76.5776 20.121C73.1881 20.121 70.1777 17.7073 70.1777 12.7449ZM81.5403 12.7449C81.5403 10.0872 79.9944 8.46028 77.7708 8.46028C75.6014 8.46028 74.0286 9.89746 74.0286 12.7449C74.0286 15.5924 75.6014 17.0296 77.7708 17.0296C79.9948 17.0296 81.5403 15.4022 81.5403 12.7449Z" fill="#0308C2"/>
<path d="M87.0273 12.7472C87.0273 7.81172 90.146 5.37109 94.539 5.37109C98.7695 5.37109 101.508 8.00151 101.508 12.3676C101.508 12.8013 101.481 13.2896 101.427 13.7506H90.7692C91.0131 16.0829 92.5048 17.3303 94.5114 17.3303C95.7319 17.3303 96.8164 16.8151 97.3861 15.8931H101.047C100.233 18.4421 97.874 20.1236 94.5386 20.1236C89.929 20.1232 87.0273 17.4928 87.0273 12.7472ZM97.7664 11.2285C97.4683 9.16746 96.0038 8.16402 94.3496 8.16402C92.6954 8.16402 91.204 9.24891 90.8513 11.2285H97.7664Z" fill="#0308C2"/>
<path d="M103.096 10.0337C103.096 3.19976 107.38 0 112.696 0C117.306 0 120.885 2.41336 121.428 6.88815H117.252C116.791 4.90853 115.028 3.60696 112.696 3.60696C109.604 3.60696 107.272 5.58658 107.272 10.0341C107.272 14.4816 109.55 16.5154 112.696 16.5154C115.164 16.5154 117.143 15.268 117.631 13.1528L117.658 12.963H112.398V9.38332H121.618V19.7425H118.147L117.875 17.8984H117.604C116.113 19.4171 114.106 20.122 112.153 20.122C107.082 20.1216 103.096 16.542 103.096 10.0337Z" fill="#0308C2"/>
<path d="M122.93 12.7472C122.93 7.75755 126.157 5.37109 130.577 5.37109C135.051 5.37109 138.224 7.75755 138.224 12.7472C138.224 17.7368 135.051 20.1232 130.577 20.1232C126.157 20.1232 122.93 17.7368 122.93 12.7472ZM134.374 12.7472C134.374 9.76408 132.828 8.3538 130.55 8.3538C128.272 8.3538 126.781 9.76408 126.781 12.7472C126.781 15.703 128.299 17.1405 130.604 17.1405C132.855 17.1401 134.374 15.703 134.374 12.7472Z" fill="#0308C2"/>
<path d="M52.6999 5.82628C50.972 6.04702 49.9442 6.74534 49.1501 7.8925H48.8788L48.6076 5.75H45.1094V19.743H48.8788V13.5329C48.8788 10.6784 50.169 9.26557 52.6999 9.17233V5.82628Z" fill="#0308C2"/>
</svg>
