<svg width="77" height="12" viewBox="0 0 77 12" fill="none" xmlns="http://www.w3.org/2000/svg">
<path d="M0 5.58951C0 1.78249 2.38685 0 5.34788 0C7.916 0 9.91014 1.34441 10.2123 3.83719H7.88582C7.62901 2.7344 6.64713 2.00933 5.34788 2.00933C3.62575 2.00933 2.3265 3.11212 2.3265 5.58971C2.3265 8.0673 3.59557 9.20027 5.34788 9.20027C6.72268 9.20027 7.82547 8.50538 8.09727 7.32704L8.11246 7.22132H5.18181V5.22718H10.318V10.9979H8.38446L8.23337 9.9707H8.08228C7.25149 10.8167 6.13351 11.2094 5.0457 11.2094C2.22057 11.2092 0 9.21505 0 5.58951Z" fill="#0052B4"/>
<path d="M11.2236 7.1002C11.2236 4.32064 13.0213 2.99121 15.4837 2.99121C17.9763 2.99121 19.7438 4.32064 19.7438 7.1002C19.7438 9.87976 17.9763 11.2092 15.4837 11.2092C13.0213 11.2092 11.2236 9.87976 11.2236 7.1002ZM17.5988 7.1002C17.5988 5.43842 16.7376 4.65279 15.4687 4.65279C14.1997 4.65279 13.3689 5.43842 13.3689 7.1002C13.3689 8.74679 14.2148 9.54761 15.4989 9.54761C16.7528 9.5474 17.5988 8.74679 17.5988 7.1002Z" fill="#0052B4"/>
<path d="M20.5621 10.9977V2.20556H17.1328V0.211426H26.197V2.20556H22.7677V10.9977H20.5621Z" fill="#0052B4"/>
<path d="M29.6025 7.1002C29.6025 4.33562 31.2795 2.99121 33.1677 2.99121C34.3611 2.99121 35.1467 3.41431 35.7358 4.2299H35.8869L36.038 3.20266H37.9716V10.9977H36.038L35.8869 9.9553H35.7358C35.1467 10.7861 34.3762 11.2092 33.1677 11.2092C31.2793 11.2092 29.6025 9.84958 29.6025 7.1002ZM35.9323 7.1002C35.9323 5.61968 35.0711 4.71335 33.8324 4.71335C32.6239 4.71335 31.7478 5.51396 31.7478 7.1002C31.7478 8.68644 32.6239 9.48705 33.8324 9.48705C35.0711 9.48705 35.9323 8.58051 35.9323 7.1002Z" fill="#0052B4"/>
<path d="M39.0938 7.10018C39.0938 4.35079 40.7705 2.99119 42.6589 2.99119C43.8523 2.99119 44.6379 3.39909 45.2271 4.22988H45.3781V0.211426H47.4628V10.9977H45.5292L45.3781 9.95528H45.2271C44.6379 10.7711 43.8675 11.2092 42.6589 11.2092C40.7707 11.2092 39.0938 9.86455 39.0938 7.10018ZM45.4235 7.10018C45.4235 5.61966 44.5623 4.71333 43.3237 4.71333C42.1151 4.71333 41.239 5.51394 41.239 7.10018C41.239 8.68642 42.1151 9.48703 43.3237 9.48703C44.5625 9.48703 45.4235 8.58049 45.4235 7.10018Z" fill="#0052B4"/>
<path d="M48.4805 7.1002C48.4805 4.35082 50.2178 2.99121 52.665 2.99121C55.0217 2.99121 56.5474 4.45654 56.5474 6.88876C56.5474 7.13038 56.5322 7.40238 56.502 7.65919H50.5649C50.7008 8.95844 51.5318 9.65333 52.6496 9.65333C53.3295 9.65333 53.9337 9.36634 54.251 8.85272H56.2903C55.8371 10.2727 54.5228 11.2094 52.6648 11.2094C50.0969 11.2092 48.4805 9.74386 48.4805 7.1002ZM54.4629 6.25422C54.2968 5.10606 53.481 4.54707 52.5595 4.54707C51.638 4.54707 50.8072 5.15143 50.6107 6.25422H54.4629Z" fill="#0052B4"/>
<path d="M57.4326 5.58951C57.4326 1.78249 59.8195 0 62.7805 0C65.3486 0 67.3428 1.34441 67.6449 3.83719H65.3184C65.0616 2.7344 64.0797 2.00933 62.7805 2.00933C61.0584 2.00933 59.7591 3.11212 59.7591 5.58971C59.7591 8.0673 61.028 9.20027 62.7805 9.20027C64.1553 9.20027 65.2581 8.50538 65.5299 7.32704L65.5451 7.22132H62.6144V5.22718H67.7507V10.9979H65.8171L65.666 9.9707H65.5149C64.6841 10.8167 63.5661 11.2094 62.4783 11.2094C59.6532 11.2092 57.4326 9.21505 57.4326 5.58951Z" fill="#0052B4"/>
<path d="M68.4795 7.1002C68.4795 4.32064 70.2772 2.99121 72.7396 2.99121C75.2321 2.99121 76.9996 4.32064 76.9996 7.1002C76.9996 9.87976 75.2321 11.2092 72.7396 11.2092C70.2772 11.2092 68.4795 9.87976 68.4795 7.1002ZM74.8546 7.1002C74.8546 5.43842 73.9935 4.65279 72.7246 4.65279C71.4555 4.65279 70.6247 5.43842 70.6247 7.1002C70.6247 8.74679 71.4707 9.54761 72.7548 9.54761C74.0084 9.5474 74.8546 8.74679 74.8546 7.1002Z" fill="#0052B4"/>
<path d="M29.3564 3.24513C28.3938 3.3681 27.8213 3.75711 27.3789 4.39616H27.2278L27.0767 3.20264H25.1279V10.9977H27.2278V7.53826C27.2278 5.94812 27.9465 5.16106 29.3564 5.10912V3.24513Z" fill="#0052B4"/>
</svg>
