<svg width="24" height="24" viewBox="0 0 24 24" fill="none" xmlns="http://www.w3.org/2000/svg">
<path d="M14.3125 23.9526L20.0911 8.69492C20.8719 5.96062 18.5495 3.39358 15.7348 3.9535L0.0558093 8.26639L0.0191858 8.19352C0.0890346 6.84185 -0.0903071 5.38446 0.0663809 4.04714C0.32048 1.87654 2.22075 0.132205 4.39777 0.0144063C8.69215 0.0219575 12.996 0.00685689 17.2843 0.0162959C19.0604 0.0200715 20.5329 -0.201936 22.0597 0.883553C23.2033 1.69682 23.9169 2.98129 24 4.38921V19.4494C23.8875 21.8276 21.9517 23.8306 19.5569 23.9541L14.3125 23.9526Z" fill="#0052B4"/>
<path d="M11.1989 22.9157C11.1634 22.9463 10.9776 22.7854 10.9395 22.7541C10.1541 22.1088 9.55043 21.0286 9.38921 20.0254C9.31634 19.572 9.34579 19.1223 9.29369 18.6734C9.05884 16.6527 7.42325 14.9672 5.41236 14.666C5.03819 14.6101 4.66667 14.632 4.291 14.598C2.51268 14.4379 0.946182 13.2516 0.344727 11.5737L16.3231 7.15513C16.7347 7.00788 17.1258 7.39224 16.951 7.80416L11.1989 22.9157Z" fill="#0052B4"/>
</svg>
