<svg width="44" height="43" viewBox="0 0 44 43" fill="none" xmlns="http://www.w3.org/2000/svg">
<path d="M25.6925 42.9973L36.0656 15.6083C37.4672 10.6999 33.2983 6.09183 28.2456 7.09695L0.100183 14.839L0.0344404 14.7082C0.159826 12.2818 -0.16211 9.66566 0.119161 7.26503C0.575294 3.36858 3.98647 0.237322 7.89444 0.0258607C15.6033 0.039416 23.3291 0.0123088 31.0271 0.0292529C34.2153 0.0360305 36.8586 -0.362495 39.5994 1.58607C41.6524 3.04597 42.9334 5.35171 43.0825 7.87909V34.9136C42.8805 39.1828 39.4056 42.7784 35.1066 43L25.6925 42.9973Z" fill="#0308C2"/>
<path d="M20.1054 41.1384C20.0417 41.1933 19.7082 40.9046 19.6398 40.8484C18.23 39.6901 17.1463 37.751 16.8569 35.9502C16.7261 35.1362 16.7789 34.329 16.6854 33.5231C16.2638 29.8957 13.3278 26.8702 9.71801 26.3294C9.04635 26.229 8.37943 26.2684 7.70506 26.2074C4.5128 25.92 1.70077 23.7905 0.621094 20.7785L29.304 12.8467C30.0427 12.5823 30.7449 13.2723 30.4311 14.0117L20.1054 41.1384Z" fill="#0308C2"/>
</svg>
